<?xml version="1.0" encoding="utf-8"?>
<!-- Generator: Adobe Illustrator 25.2.3, SVG Export Plug-In . SVG Version: 6.00 Build 0)  -->
<svg version="1.1" id="Lager_1" xmlns="http://www.w3.org/2000/svg" xmlns:xlink="http://www.w3.org/1999/xlink" x="0px" y="0px"
	 viewBox="0 0 800 817" style="enable-background:new 0 0 800 817;" xml:space="preserve">
<style type="text/css">
	.st0{fill:#999999;}
	.st1{fill:#404040;}
	.st2{fill:none;stroke:#404040;stroke-width:4;stroke-linecap:round;stroke-linejoin:round;stroke-miterlimit:10;}
	.st3{fill:#B3E3FF;stroke:#404040;stroke-width:4;stroke-linejoin:round;stroke-miterlimit:10;}
	.st4{fill:#FFFFFF;stroke:#404040;stroke-width:4;stroke-linecap:round;stroke-linejoin:round;stroke-miterlimit:10;}
	.st5{fill:#B3E3FF;stroke:#404040;stroke-width:4;stroke-miterlimit:10;}
	.st6{fill:none;stroke:#CCCCCC;stroke-linecap:round;stroke-linejoin:round;stroke-miterlimit:10;}
</style>
<path class="st0" d="M341.2,466.2v-10.6h1.5v9.3h5v1.4L341.2,466.2L341.2,466.2z M356.7,462.6c0,2.2-1.5,3.8-3.7,3.8
	s-3.7-1.6-3.7-3.8c0-2.2,1.5-3.8,3.7-3.8S356.7,460.4,356.7,462.6z M355.3,462.6c0-1.7-1.1-2.6-2.2-2.6s-2.2,0.9-2.2,2.6
	s1.1,2.6,2.2,2.6S355.3,464.2,355.3,462.6z M360.1,462.6c0,1.6,1,2.5,2.2,2.5c1.3,0,1.8-0.9,2-1.5l1.2,0.5c-0.3,1-1.4,2.2-3.3,2.2
	c-2.1,0-3.6-1.6-3.6-3.8c0-2.2,1.6-3.8,3.6-3.8c1.9,0,2.9,1.2,3.2,2.3l-1.3,0.5c-0.2-0.7-0.7-1.5-1.9-1.5
	C361.1,460,360.1,460.9,360.1,462.6L360.1,462.6z M369.6,462.1l1.9-0.3c0.4-0.1,0.6-0.3,0.6-0.5c0-0.7-0.5-1.3-1.6-1.3
	c-1,0-1.5,0.6-1.6,1.5l-1.4-0.3c0.2-1.4,1.4-2.3,3-2.3c2.2,0,3,1.2,3,2.6v3.6c0,0.6,0.1,1,0.1,1.2h-1.4c0-0.2-0.1-0.5-0.1-1
	c-0.3,0.5-1,1.2-2.3,1.2c-1.5,0-2.4-1-2.4-2.2C367.4,463,368.4,462.2,369.6,462.1L369.6,462.1z M372.1,463.1v-0.3l-2.2,0.3
	c-0.6,0.1-1.1,0.4-1.1,1.1c0,0.5,0.4,1,1.2,1C371.2,465.2,372.1,464.7,372.1,463.1z M376.5,466.2v-10.9h1.4v10.9H376.5z
	 M388.8,461.8h-1.6v4.3h-1.5v-10.6h4c2,0,3.3,1.4,3.3,3.2c0,1.5-1,2.7-2.6,3l2.5,4.5h-1.7L388.8,461.8L388.8,461.8z M389.4,460.5
	c1.2,0,2-0.7,2-1.8s-0.8-1.8-2-1.8h-2.2v3.6L389.4,460.5L389.4,460.5z M401.6,464.1c-0.4,1.3-1.6,2.3-3.2,2.3
	c-1.9,0-3.6-1.4-3.6-3.9c0-2.3,1.6-3.8,3.4-3.8c2.2,0,3.5,1.5,3.5,3.8v0.4h-5.4c0,1.3,1,2.2,2.2,2.2s1.8-0.6,2-1.5L401.6,464.1z
	 M400.1,461.8c0-1-0.7-1.8-2-1.8c-1.2,0-1.9,0.9-2,1.8H400.1z M404.1,469v-10h1.4v1.1c0.4-0.7,1.2-1.3,2.4-1.3
	c2.2,0,3.3,1.7,3.3,3.8c0,2.1-1.2,3.8-3.4,3.8c-1.1,0-1.9-0.5-2.3-1.2v3.8L404.1,469L404.1,469z M407.7,460c-1.3,0-2.1,1.1-2.1,2.5
	c0,1.5,0.9,2.5,2.1,2.5c1.3,0,2.1-1.1,2.1-2.5S409,460,407.7,460z M420.6,462.6c0,2.2-1.5,3.8-3.7,3.8s-3.7-1.6-3.7-3.8
	c0-2.2,1.5-3.8,3.7-3.8S420.6,460.4,420.6,462.6z M419.1,462.6c0-1.7-1.1-2.6-2.2-2.6s-2.2,0.9-2.2,2.6s1.1,2.6,2.2,2.6
	S419.1,464.2,419.1,462.6z M423.7,463.9c0.1,0.8,0.7,1.3,1.7,1.3c0.8,0,1.2-0.4,1.2-1c0-0.4-0.3-0.8-0.9-0.9l-1.2-0.3
	c-1.1-0.2-1.8-1-1.8-2c0-1.2,1.2-2.3,2.6-2.3c2,0,2.6,1.3,2.7,1.9l-1.2,0.5c-0.1-0.4-0.4-1.2-1.5-1.2c-0.7,0-1.2,0.5-1.2,1
	c0,0.4,0.3,0.8,0.8,0.9l1.2,0.3c1.3,0.3,2,1.1,2,2.1s-0.9,2.2-2.6,2.2c-2,0-2.8-1.3-2.9-2.1L423.7,463.9L423.7,463.9z M431.3,455.2
	c0.6,0,1,0.4,1,1s-0.4,1-1,1s-1-0.5-1-1S430.8,455.2,431.3,455.2z M430.7,466.2V459h1.4v7.2H430.7z M437.1,459h1.6v1.3h-1.6v3.8
	c0,0.7,0.3,1,1,1c0.2,0,0.4,0,0.6-0.1v1.2c-0.1,0-0.5,0.1-1,0.1c-1.2,0-2-0.8-2-2.1v-4h-1.4V459h0.4c0.8,0,1.1-0.5,1.1-1.1v-1.2h1.3
	V459L437.1,459z M448,462.6c0,2.2-1.5,3.8-3.7,3.8s-3.7-1.6-3.7-3.8c0-2.2,1.5-3.8,3.7-3.8S448,460.4,448,462.6z M446.5,462.6
	c0-1.7-1.1-2.6-2.2-2.6s-2.2,0.9-2.2,2.6s1,2.6,2.2,2.6S446.5,464.2,446.5,462.6z M454.5,460.4h-0.6c-1.2,0-2,0.6-2,2.2v3.6h-1.4
	V459h1.4v1.3c0.5-1.1,1.4-1.4,2.2-1.4h0.5v1.5H454.5z M457.3,469.2l1.8-3.8L456,459h1.6l2.2,5l2.2-5h1.5l-4.7,10.2L457.3,469.2
	L457.3,469.2z"/>
<path class="st1" d="M501.5,778.5c2,0,3.2,1.2,3.2,2.9c0,1.1-0.7,2-1.6,2.3c1.2,0.3,1.9,1.4,1.9,2.6c0,1.7-1.3,2.9-3.3,2.9H498
	v-10.6h3.5V778.5z M501.4,783.1c1.2,0,1.9-0.7,1.9-1.7s-0.7-1.7-1.9-1.7h-1.8v3.4H501.4z M501.6,787.8c1.2,0,2-0.7,2-1.7
	s-0.6-1.7-1.9-1.7h-2.1v3.4H501.6z M514.6,785.5c0,2.2-1.5,3.8-3.7,3.8s-3.7-1.6-3.7-3.8s1.5-3.8,3.7-3.8
	C513,781.6,514.6,783.3,514.6,785.5z M513.1,785.5c0-1.7-1.1-2.6-2.3-2.6c-1.2,0-2.2,0.9-2.2,2.6c0,1.7,1.1,2.6,2.2,2.6
	C512.1,788.1,513.1,787.2,513.1,785.5z M518.9,781.9h1.6v1.3h-1.6v3.8c0,0.7,0.3,1,1,1c0.2,0,0.4,0,0.6-0.1v1.2
	c-0.1,0-0.5,0.1-1,0.1c-1.2,0-2-0.8-2-2.1v-4h-1.4v-1.3h0.4c0.8,0,1.1-0.5,1.1-1.1v-1.2h1.3L518.9,781.9L518.9,781.9z M524.5,789.1
	h-1.4v-10.9h1.4v4.5c0.5-0.8,1.4-1.1,2.2-1.1c1.7,0,2.6,1.2,2.6,2.9v4.6h-1.4v-4.3c0-1-0.4-1.8-1.7-1.8c-1.1,0-1.6,0.8-1.7,1.9
	L524.5,789.1L524.5,789.1z M536.8,791.9v-10.1h1.4v1.1c0.4-0.7,1.2-1.3,2.4-1.3c2.2,0,3.3,1.7,3.3,3.8s-1.2,3.8-3.4,3.8
	c-1.1,0-1.9-0.5-2.3-1.2v3.8h-1.4V791.9z M540.3,783c-1.3,0-2.1,1.1-2.1,2.5c0,1.5,0.9,2.5,2.1,2.5c1.3,0,2.1-1.1,2.1-2.5
	C542.5,784,541.6,783,540.3,783z M549,789.3c-1.7,0-2.7-1.3-2.7-2.9v-4.5h1.4v4.3c0,1,0.4,1.9,1.6,1.9c1.1,0,1.7-0.8,1.7-1.8v-4.4
	h1.4v5.9c0,0.6,0,1.1,0.1,1.3h-1.4c0-0.2-0.1-0.6-0.1-0.9C550.7,789,549.8,789.3,549,789.3L549,789.3z M556.2,786.8
	c0.1,0.8,0.7,1.3,1.7,1.3c0.8,0,1.2-0.5,1.2-1s-0.3-0.8-0.9-0.9L557,786c-1.1-0.2-1.8-1-1.8-2c0-1.2,1.2-2.3,2.6-2.3
	c2,0,2.6,1.3,2.7,1.9l-1.2,0.5c-0.1-0.4-0.4-1.2-1.5-1.2c-0.7,0-1.2,0.5-1.2,1c0,0.4,0.3,0.8,0.8,0.9l1.2,0.3c1.3,0.3,2,1.1,2,2.1
	s-0.9,2.2-2.6,2.2c-2,0-2.8-1.3-2.9-2.1L556.2,786.8L556.2,786.8z M564.5,789.1h-1.4v-10.9h1.4v4.5c0.5-0.8,1.4-1.1,2.2-1.1
	c1.7,0,2.6,1.2,2.6,2.9v4.6h-1.4v-4.3c0-1-0.4-1.8-1.7-1.8c-1.1,0-1.6,0.8-1.7,1.9L564.5,789.1L564.5,789.1z M578.6,787
	c-0.4,1.3-1.6,2.3-3.2,2.3c-1.9,0-3.6-1.4-3.6-3.9c0-2.3,1.6-3.8,3.4-3.8c2.2,0,3.5,1.5,3.5,3.8v0.4h-5.4c0,1.3,1,2.2,2.2,2.2
	s1.8-0.6,2-1.5L578.6,787z M577.2,784.7c0-1-0.7-1.8-2-1.8c-1.2,0-1.9,0.9-2,1.8H577.2z M586.3,788c-0.3,0.7-1.1,1.3-2.2,1.3
	c-2.1,0-3.4-1.7-3.4-3.8c0-2,1.4-3.8,3.4-3.8c1.3,0,2,0.6,2.2,1.2v-4.7h1.4v9.5c0,0.7,0.1,1.2,0.1,1.3h-1.4
	C586.4,788.8,586.3,788.5,586.3,788z M584.2,788c1.3,0,2.1-1.1,2.1-2.6s-0.8-2.5-2.1-2.5s-2.1,1-2.1,2.5
	C582,786.9,582.8,788,584.2,788z M597.2,781.9h1.6v1.3h-1.6v3.8c0,0.7,0.3,1,1,1c0.2,0,0.4,0,0.6-0.1v1.2c-0.1,0-0.5,0.1-1,0.1
	c-1.2,0-2-0.8-2-2.1v-4h-1.4v-1.3h0.4c0.8,0,1.1-0.5,1.1-1.1v-1.2h1.3L597.2,781.9L597.2,781.9z M608,785.5c0,2.2-1.5,3.8-3.7,3.8
	s-3.7-1.6-3.7-3.8s1.5-3.8,3.7-3.8S608,783.3,608,785.5z M606.6,785.5c0-1.7-1.1-2.6-2.2-2.6s-2.2,0.9-2.2,2.6
	c0,1.7,1.1,2.6,2.2,2.6S606.6,787.2,606.6,785.5z M488.6,803.5c0,1.6,1,2.5,2.2,2.5c1.3,0,1.8-0.9,2-1.5l1.2,0.5
	c-0.3,1-1.4,2.2-3.3,2.2c-2.1,0-3.6-1.7-3.6-3.8c0-2.2,1.6-3.8,3.6-3.8c1.9,0,2.9,1.2,3.2,2.3l-1.3,0.5c-0.2-0.7-0.7-1.5-1.9-1.5
	C489.6,801,488.6,801.8,488.6,803.5L488.6,803.5z M502.7,805c-0.4,1.3-1.6,2.3-3.2,2.3c-1.9,0-3.6-1.4-3.6-3.9
	c0-2.3,1.6-3.8,3.4-3.8c2.2,0,3.5,1.5,3.5,3.8v0.4h-5.4c0,1.3,1,2.2,2.2,2.2s1.8-0.6,2-1.5L502.7,805z M501.2,802.7
	c0-1-0.7-1.8-2-1.8c-1.2,0-1.9,0.9-2,1.8H501.2z M506.7,807.1h-1.4v-7.2h1.4v1c0.5-0.9,1.4-1.2,2.2-1.2c1.7,0,2.6,1.2,2.6,2.9v4.6
	H510v-4.3c0-1-0.4-1.8-1.7-1.8c-1.1,0-1.7,0.9-1.7,2v4H506.7z M516.3,799.9h1.6v1.3h-1.6v3.8c0,0.7,0.3,1,1,1c0.2,0,0.4,0,0.6-0.1
	v1.2c-0.1,0-0.5,0.1-1,0.1c-1.2,0-2-0.8-2-2.1v-4h-1.4v-1.3h0.4c0.8,0,1.1-0.5,1.1-1.1v-1.2h1.3L516.3,799.9L516.3,799.9z
	 M524.4,801.3h-0.6c-1.2,0-2,0.6-2,2.2v3.6h-1.4v-7.2h1.4v1.3c0.5-1.1,1.4-1.4,2.2-1.4h0.5v1.5L524.4,801.3z M528.4,803l1.9-0.3
	c0.4-0.1,0.6-0.3,0.6-0.5c0-0.7-0.5-1.3-1.6-1.3c-1,0-1.5,0.6-1.6,1.5l-1.4-0.3c0.2-1.4,1.4-2.3,3-2.3c2.2,0,3,1.2,3,2.6v3.6
	c0,0.6,0.1,1,0.1,1.2H531c0-0.2-0.1-0.5-0.1-1c-0.3,0.5-1,1.2-2.3,1.2c-1.5,0-2.4-1-2.4-2.2C526.2,803.9,527.1,803.1,528.4,803z
	 M530.9,804v-0.3l-2.2,0.3c-0.6,0.1-1.1,0.4-1.1,1.1c0,0.5,0.4,1,1.2,1C529.9,806.1,530.9,805.6,530.9,804z M535.2,807.1v-10.9h1.4
	v10.9H535.2z M548.3,801.3h-0.6c-1.2,0-2,0.6-2,2.2v3.6h-1.4v-7.2h1.4v1.3c0.5-1.1,1.4-1.4,2.2-1.4h0.5v1.5L548.3,801.3z M556.7,805
	c-0.4,1.3-1.6,2.3-3.2,2.3c-1.9,0-3.6-1.4-3.6-3.9c0-2.3,1.6-3.8,3.4-3.8c2.2,0,3.5,1.5,3.5,3.8v0.4h-5.4c0,1.3,1,2.2,2.2,2.2
	s1.8-0.6,2-1.5L556.7,805z M555.3,802.7c0-1-0.7-1.8-2-1.8c-1.2,0-1.9,0.9-2,1.8H555.3z M559.3,809.9v-10.1h1.4v1.1
	c0.4-0.7,1.2-1.3,2.4-1.3c2.2,0,3.3,1.7,3.3,3.8s-1.2,3.8-3.4,3.8c-1.1,0-1.9-0.5-2.3-1.2v3.8h-1.4V809.9z M562.9,801
	c-1.3,0-2.1,1.1-2.1,2.5c0,1.5,0.9,2.5,2.1,2.5c1.3,0,2.1-1.1,2.1-2.5C565,802,564.2,801,562.9,801z M575.8,803.5
	c0,2.2-1.5,3.8-3.7,3.8s-3.7-1.6-3.7-3.8s1.5-3.8,3.7-3.8S575.8,801.3,575.8,803.5z M574.3,803.5c0-1.7-1.1-2.6-2.2-2.6
	s-2.2,0.9-2.2,2.6c0,1.7,1,2.6,2.2,2.6S574.3,805.2,574.3,803.5z M578.9,804.8c0.1,0.8,0.7,1.3,1.7,1.3c0.8,0,1.2-0.5,1.2-1
	s-0.3-0.8-0.9-0.9l-1.2-0.3c-1.1-0.2-1.8-1-1.8-2c0-1.2,1.2-2.3,2.6-2.3c2,0,2.6,1.3,2.7,1.9L582,802c-0.1-0.4-0.4-1.2-1.5-1.2
	c-0.7,0-1.2,0.5-1.2,1c0,0.4,0.3,0.8,0.8,0.9l1.2,0.3c1.3,0.3,2,1.1,2,2.1s-0.9,2.2-2.6,2.2c-2,0-2.8-1.3-2.9-2.1L578.9,804.8
	L578.9,804.8z M586.5,796.1c0.6,0,1,0.4,1,1s-0.4,1-1,1s-1-0.5-1-1S586,796.1,586.5,796.1z M585.8,807.1v-7.2h1.4v7.2H585.8z
	 M592.3,799.9h1.6v1.3h-1.6v3.8c0,0.7,0.3,1,1,1c0.2,0,0.4,0,0.6-0.1v1.2c-0.1,0-0.5,0.1-1,0.1c-1.2,0-2-0.8-2-2.1v-4h-1.4v-1.3h0.4
	c0.8,0,1.1-0.5,1.1-1.1v-1.2h1.3L592.3,799.9L592.3,799.9z M603.2,803.5c0,2.2-1.5,3.8-3.7,3.8s-3.7-1.6-3.7-3.8s1.5-3.8,3.7-3.8
	S603.2,801.3,603.2,803.5z M601.7,803.5c0-1.7-1.1-2.6-2.2-2.6s-2.2,0.9-2.2,2.6c0,1.7,1,2.6,2.2,2.6S601.7,805.2,601.7,803.5z
	 M609.7,801.3h-0.6c-1.2,0-2,0.6-2,2.2v3.6h-1.4v-7.2h1.4v1.3c0.5-1.1,1.4-1.4,2.2-1.4h0.5v1.5L609.7,801.3z M612.4,810.1l1.8-3.8
	l-3.1-6.4h1.6l2.2,5l2.2-5h1.5l-4.7,10.2H612.4z"/>
<path class="st2" d="M608.4,633.6v-23.5 M619.3,624.9l-10.9,10.8l-10.8-10.8"/>
<path class="st3" d="M560.4,539.2h96v50h-96V539.2z"/>
<path class="st4" d="M189.8,676.7h397.6"/>
<circle class="st4" cx="278.7" cy="676.7" r="21"/>
<circle class="st4" cx="388.6" cy="676.7" r="21"/>
<circle class="st4" cx="168.8" cy="676.7" r="21"/>
<circle class="st5" cx="498.5" cy="676.7" r="21"/>
<circle class="st5" cx="608.4" cy="676.7" r="21"/>
<path class="st2" d="M576.6,739.5c11.6,0,21-9.4,21-21 M576.6,739.5c-11.6,0-21,9.4-21,21 M534.6,739.5c11.6,0,21,9.4,21,21
	 M534.6,739.5c-11.6,0-21-9.4-21-21"/>
<path class="st0" d="M333,14c0-3.6,2.6-5.5,5.3-5.5c2.4,0,4.1,1.3,4.7,3.4l-1.4,0.5c-0.4-1.6-1.6-2.5-3.3-2.5
	c-1.9,0-3.8,1.4-3.8,4.2s1.8,4.2,3.8,4.2c1.8,0,3-1.1,3.4-2.5l1.3,0.5c-0.6,2-2.2,3.4-4.7,3.4C335.5,19.6,333,17.6,333,14z
	 M351.5,17.3c-0.4,1.3-1.6,2.3-3.2,2.3c-1.9,0-3.6-1.4-3.6-3.9c0-2.3,1.6-3.8,3.4-3.8c2.2,0,3.5,1.5,3.5,3.8v0.4h-5.4
	c0,1.3,1,2.2,2.2,2.2s1.8-0.6,2-1.5L351.5,17.3z M350,15c0-1-0.7-1.8-2-1.8c-1.2,0-1.9,0.9-2,1.8H350z M355.5,19.3h-1.4v-7.2h1.4v1
	c0.5-0.9,1.4-1.2,2.2-1.2c1.7,0,2.6,1.2,2.6,2.9v4.6h-1.4V15c0-1-0.4-1.8-1.7-1.8c-1.1,0-1.7,0.9-1.7,2V19.3z M365.1,12.1h1.6v1.3
	h-1.6v3.7c0,0.7,0.3,1,1,1c0.2,0,0.4,0,0.6-0.1v1.2c-0.1,0-0.5,0.1-1,0.1c-1.2,0-2-0.8-2-2.1v-4h-1.4v-1.3h0.4
	c0.8,0,1.1-0.5,1.1-1.1v-1h1.3C365.1,9.8,365.1,12.1,365.1,12.1z M373.2,13.5h-0.6c-1.2,0-2,0.6-2,2.2v3.6h-1.4v-7.2h1.4v1.3
	c0.5-1.1,1.4-1.4,2.2-1.4h0.5v1.5L373.2,13.5z M377.2,15.2l1.9-0.3c0.4-0.1,0.6-0.3,0.6-0.5c0-0.7-0.5-1.3-1.6-1.3
	c-1,0-1.5,0.6-1.6,1.5l-1.4-0.3c0.2-1.4,1.4-2.3,3-2.3c2.2,0,3,1.2,3,2.6v3.6c0,0.6,0.1,1,0.1,1.2h-1.4c0-0.2-0.1-0.5-0.1-1
	c-0.3,0.5-1,1.2-2.3,1.2c-1.5,0-2.4-1-2.4-2.2C375,16.1,375.9,15.4,377.2,15.2L377.2,15.2z M379.7,16.2v-0.3l-2.2,0.3
	c-0.6,0.1-1.1,0.4-1.1,1.1c0,0.5,0.4,1,1.2,1C378.7,18.4,379.7,17.8,379.7,16.2z M384,19.3V8.5h1.4v10.9L384,19.3L384,19.3z
	 M396.3,15h-1.6v4.3h-1.5V8.7h4c2,0,3.3,1.4,3.3,3.2c0,1.5-1,2.7-2.6,3l2.5,4.5h-1.7L396.3,15L396.3,15z M397,13.7
	c1.2,0,2-0.7,2-1.8s-0.8-1.8-2-1.8h-2.2v3.6H397z M409.1,17.3c-0.4,1.3-1.6,2.3-3.2,2.3c-1.9,0-3.6-1.4-3.6-3.9
	c0-2.3,1.6-3.8,3.4-3.8c2.2,0,3.5,1.5,3.5,3.8v0.4h-5.4c0,1.3,1,2.2,2.2,2.2s1.8-0.6,2-1.5L409.1,17.3z M407.7,15c0-1-0.7-1.8-2-1.8
	c-1.2,0-1.9,0.9-2,1.8H407.7z M411.7,22.2V12.1h1.4v1.1c0.4-0.7,1.2-1.3,2.4-1.3c2.2,0,3.3,1.7,3.3,3.8s-1.2,3.8-3.4,3.8
	c-1.1,0-1.9-0.5-2.3-1.2v3.8h-1.4V22.2z M415.2,13.2c-1.3,0-2.1,1.1-2.1,2.5c0,1.5,0.9,2.5,2.1,2.5c1.3,0,2.1-1.1,2.1-2.5
	S416.5,13.2,415.2,13.2z M428.1,15.7c0,2.2-1.5,3.8-3.7,3.8s-3.7-1.6-3.7-3.8s1.5-3.8,3.7-3.8S428.1,13.5,428.1,15.7z M426.7,15.7
	c0-1.7-1.1-2.6-2.2-2.6s-2.2,0.9-2.2,2.6s1.1,2.6,2.2,2.6S426.7,17.4,426.7,15.7z M431.3,17c0.1,0.8,0.7,1.3,1.7,1.3
	c0.8,0,1.2-0.4,1.2-1c0-0.4-0.3-0.8-0.9-0.9l-1.2-0.3c-1.1-0.2-1.8-1-1.8-2c0-1.2,1.2-2.3,2.6-2.3c2,0,2.6,1.3,2.7,1.9l-1.2,0.5
	c-0.1-0.4-0.4-1.2-1.5-1.2c-0.7,0-1.2,0.5-1.2,1c0,0.4,0.3,0.8,0.8,0.9l1.2,0.3c1.3,0.3,2,1.1,2,2.1s-0.9,2.2-2.6,2.2
	c-2,0-2.8-1.3-2.9-2.1L431.3,17L431.3,17z M438.9,8.4c0.6,0,1,0.4,1,1s-0.4,1-1,1s-1-0.5-1-1C437.9,8.8,438.3,8.4,438.9,8.4z
	 M438.2,19.3v-7.2h1.4v7.2H438.2z M444.6,12.1h1.6v1.3h-1.6v3.7c0,0.7,0.3,1,1,1c0.2,0,0.4,0,0.6-0.1v1.2c-0.1,0-0.5,0.1-1,0.1
	c-1.2,0-2-0.8-2-2.1v-4h-1.4v-1.3h0.4c0.8,0,1.1-0.5,1.1-1.1v-1h1.3C444.6,9.8,444.6,12.1,444.6,12.1z M455.5,15.7
	c0,2.2-1.5,3.8-3.7,3.8s-3.7-1.6-3.7-3.8s1.5-3.8,3.7-3.8S455.5,13.5,455.5,15.7z M454.1,15.7c0-1.7-1.1-2.6-2.2-2.6
	s-2.2,0.9-2.2,2.6s1.1,2.6,2.2,2.6S454.1,17.4,454.1,15.7z M462.1,13.5h-0.6c-1.2,0-2,0.6-2,2.2v3.6h-1.4v-7.2h1.4v1.3
	c0.5-1.1,1.4-1.4,2.2-1.4h0.5v1.5L462.1,13.5z M464.8,22.3l1.8-3.8l-3.1-6.4h1.6l2.2,5l2.2-5h1.5l-4.7,10.2
	C466.3,22.3,464.8,22.3,464.8,22.3z"/>
<path class="st6" d="M131.4,352.7h541.4"/>
<path class="st2" d="M498.5,185.6v-23.5 M509.4,176.9l-10.9,10.8l-10.9-10.8"/>
<path class="st3" d="M450.5,91.2h96v50h-96V91.2z"/>
<path class="st4" d="M299.7,228.7h177.8"/>
<circle class="st4" cx="278.7" cy="228.7" r="21"/>
<circle class="st4" cx="388.6" cy="228.7" r="21"/>
<circle class="st4" cx="498.5" cy="228.7" r="21"/>
<g>
	<path d="M484.1,122.4v-10h2l2.4,7.1c0.2,0.7,0.4,1.2,0.5,1.5c0.1-0.4,0.3-0.9,0.5-1.6l2.4-7h1.8v10h-1.3V114l-2.9,8.4h-1.2
		l-2.9-8.5v8.5H484.1z"/>
	<path d="M501.1,121.5c-0.5,0.4-0.9,0.7-1.3,0.8c-0.4,0.2-0.9,0.2-1.4,0.2c-0.8,0-1.4-0.2-1.8-0.6s-0.6-0.9-0.6-1.5
		c0-0.4,0.1-0.7,0.2-1c0.2-0.3,0.4-0.5,0.6-0.7c0.3-0.2,0.6-0.3,0.9-0.4c0.2-0.1,0.6-0.1,1.1-0.2c1-0.1,1.7-0.3,2.2-0.4
		c0-0.2,0-0.3,0-0.3c0-0.5-0.1-0.9-0.3-1.1c-0.3-0.3-0.8-0.4-1.4-0.4s-1,0.1-1.3,0.3c-0.3,0.2-0.5,0.6-0.6,1.1l-1.2-0.2
		c0.1-0.5,0.3-0.9,0.5-1.2c0.3-0.3,0.6-0.6,1.1-0.7c0.5-0.2,1-0.3,1.6-0.3s1.1,0.1,1.5,0.2s0.7,0.3,0.9,0.6c0.2,0.2,0.3,0.5,0.4,0.8
		c0,0.2,0.1,0.6,0.1,1.1v1.6c0,1.1,0,1.9,0.1,2.2c0.1,0.3,0.2,0.6,0.3,0.9h-1.3C501.2,122.2,501.1,121.9,501.1,121.5z M501,118.8
		c-0.4,0.2-1.1,0.3-2,0.5c-0.5,0.1-0.9,0.2-1.1,0.2s-0.4,0.2-0.5,0.4c-0.1,0.2-0.2,0.4-0.2,0.6c0,0.3,0.1,0.6,0.4,0.8
		c0.2,0.2,0.6,0.3,1.1,0.3s0.9-0.1,1.3-0.3c0.4-0.2,0.6-0.5,0.8-0.9c0.1-0.3,0.2-0.7,0.2-1.2V118.8z"/>
	<path d="M504.8,113.8v-1.4h1.2v1.4H504.8z M504.8,122.4v-7.3h1.2v7.3H504.8z"/>
	<path d="M508.6,122.4v-7.3h1.1v1c0.5-0.8,1.3-1.2,2.3-1.2c0.4,0,0.8,0.1,1.2,0.2c0.4,0.2,0.6,0.4,0.8,0.6s0.3,0.6,0.4,0.9
		c0,0.2,0.1,0.6,0.1,1.2v4.5h-1.2v-4.4c0-0.5,0-0.9-0.1-1.1s-0.3-0.4-0.5-0.6c-0.2-0.1-0.5-0.2-0.9-0.2c-0.5,0-1,0.2-1.4,0.5
		s-0.6,1-0.6,1.9v4H508.6z"/>
</g>
<g>
	<path d="M592.5,570.4v-10h2l2.4,7.1c0.2,0.7,0.4,1.2,0.5,1.5c0.1-0.4,0.3-0.9,0.5-1.6l2.4-7h1.8v10h-1.3V562l-2.9,8.4h-1.2
		l-2.9-8.5v8.5H592.5z"/>
	<path d="M609.5,569.5c-0.5,0.4-0.9,0.7-1.3,0.8c-0.4,0.2-0.9,0.2-1.4,0.2c-0.8,0-1.4-0.2-1.8-0.6c-0.4-0.4-0.6-0.9-0.6-1.5
		c0-0.4,0.1-0.7,0.2-1c0.2-0.3,0.4-0.5,0.6-0.7c0.3-0.2,0.6-0.3,0.9-0.4c0.2-0.1,0.6-0.1,1.1-0.2c1-0.1,1.7-0.3,2.2-0.4
		c0-0.2,0-0.3,0-0.3c0-0.5-0.1-0.9-0.3-1.1c-0.3-0.3-0.8-0.4-1.4-0.4c-0.6,0-1,0.1-1.3,0.3c-0.3,0.2-0.5,0.6-0.6,1.1l-1.2-0.2
		c0.1-0.5,0.3-0.9,0.5-1.2c0.3-0.3,0.6-0.6,1.1-0.7c0.5-0.2,1-0.3,1.6-0.3s1.1,0.1,1.5,0.2s0.7,0.3,0.9,0.6c0.2,0.2,0.3,0.5,0.4,0.8
		c0,0.2,0.1,0.6,0.1,1.1v1.6c0,1.1,0,1.9,0.1,2.2c0.1,0.3,0.2,0.6,0.3,0.9h-1.3C609.6,570.2,609.5,569.9,609.5,569.5z M609.4,566.8
		c-0.4,0.2-1.1,0.3-2,0.5c-0.5,0.1-0.9,0.2-1.1,0.2c-0.2,0-0.4,0.2-0.5,0.4c-0.1,0.2-0.2,0.4-0.2,0.6c0,0.3,0.1,0.6,0.4,0.8
		c0.2,0.2,0.6,0.3,1.1,0.3s0.9-0.1,1.3-0.3c0.4-0.2,0.6-0.5,0.8-0.9c0.1-0.3,0.2-0.7,0.2-1.2V566.8z"/>
	<path d="M613.2,561.8v-1.4h1.2v1.4H613.2z M613.2,570.4v-7.3h1.2v7.3H613.2z"/>
	<path d="M617,570.4v-7.3h1.1v1c0.5-0.8,1.3-1.2,2.3-1.2c0.4,0,0.8,0.1,1.2,0.2c0.4,0.2,0.6,0.4,0.8,0.6c0.2,0.2,0.3,0.6,0.4,0.9
		c0,0.2,0.1,0.6,0.1,1.2v4.5h-1.2v-4.4c0-0.5,0-0.9-0.1-1.1s-0.3-0.4-0.5-0.6c-0.2-0.1-0.5-0.2-0.9-0.2c-0.5,0-1,0.2-1.4,0.5
		c-0.4,0.3-0.6,1-0.6,1.9v4H617z"/>
</g>
</svg>
