<?xml version="1.0" encoding="utf-8"?>
<!-- Generator: Adobe Illustrator 25.2.3, SVG Export Plug-In . SVG Version: 6.00 Build 0)  -->
<svg version="1.1" id="Lager_1" xmlns="http://www.w3.org/2000/svg" xmlns:xlink="http://www.w3.org/1999/xlink" x="0px" y="0px"
	 viewBox="0 0 800 453" style="enable-background:new 0 0 800 453;" xml:space="preserve">
<style type="text/css">
	.st0{fill:#999999;}
	.st1{fill:none;stroke:#404040;stroke-width:4;stroke-linecap:round;stroke-linejoin:round;stroke-miterlimit:10;}
	.st2{fill:#FFFFFF;stroke:#404040;stroke-width:4;stroke-linecap:round;stroke-linejoin:round;stroke-miterlimit:10;}
	.st3{fill:#B3E3FF;stroke:#404040;stroke-width:4;stroke-linejoin:round;stroke-miterlimit:10;}
	.st4{fill:#B18BE8;stroke:#404040;stroke-width:4;stroke-linecap:round;stroke-linejoin:round;stroke-miterlimit:10;}
	.st5{fill:#404040;}
</style>
<path class="st0" d="M339.1,18.8V8.2h1.5v9.3h5v1.4h-6.5V18.8z M354.6,15.2c0,2.2-1.5,3.8-3.7,3.8s-3.7-1.6-3.7-3.8s1.5-3.8,3.7-3.8
	S354.6,13,354.6,15.2z M353.1,15.2c0-1.7-1.1-2.6-2.2-2.6s-2.2,0.9-2.2,2.6s1.1,2.6,2.2,2.6S353.1,16.9,353.1,15.2z M358,15.2
	c0,1.6,1,2.5,2.2,2.5c1.3,0,1.8-0.9,2-1.5l1.2,0.5c-0.3,1-1.4,2.2-3.3,2.2c-2.1,0-3.6-1.7-3.6-3.8c0-2.2,1.6-3.8,3.6-3.8
	c1.9,0,2.9,1.2,3.2,2.3l-1.3,0.5c-0.2-0.7-0.7-1.5-1.9-1.5C359,12.7,358,13.5,358,15.2L358,15.2z M367.5,14.7l1.9-0.3
	c0.4-0.1,0.6-0.3,0.6-0.5c0-0.7-0.5-1.3-1.6-1.3c-1,0-1.5,0.6-1.6,1.5l-1.4-0.3c0.2-1.4,1.4-2.3,3-2.3c2.2,0,3,1.2,3,2.6v3.6
	c0,0.6,0.1,1,0.1,1.2h-1.4c0-0.2-0.1-0.5-0.1-1c-0.3,0.5-1,1.2-2.3,1.2c-1.5,0-2.4-1-2.4-2.2C365.3,15.6,366.3,14.9,367.5,14.7
	L367.5,14.7z M370,15.7v-0.3l-2.2,0.3c-0.6,0.1-1.1,0.4-1.1,1.1c0,0.5,0.4,1,1.2,1C369.1,17.9,370,17.3,370,15.7z M374.4,18.8V8h1.4
	v10.9L374.4,18.8L374.4,18.8z M386.6,14.5H385v4.3h-1.5V8.2h4c2,0,3.3,1.4,3.3,3.2c0,1.5-1,2.7-2.6,3l2.5,4.5H389L386.6,14.5
	L386.6,14.5z M387.3,13.1c1.2,0,2-0.7,2-1.8s-0.8-1.8-2-1.8h-2.2v3.6C385.1,13.1,387.3,13.1,387.3,13.1z M399.4,16.8
	c-0.4,1.3-1.6,2.3-3.2,2.3c-1.9,0-3.6-1.4-3.6-3.9c0-2.3,1.6-3.8,3.4-3.8c2.2,0,3.5,1.5,3.5,3.8v0.4H394c0,1.3,1,2.2,2.2,2.2
	s1.8-0.6,2-1.5L399.4,16.8z M398,14.5c0-1-0.7-1.8-2-1.8c-1.2,0-1.9,0.9-2,1.8H398z M402,21.7V11.6h1.4v1.1c0.4-0.7,1.2-1.3,2.4-1.3
	c2.2,0,3.3,1.7,3.3,3.8s-1.2,3.8-3.4,3.8c-1.1,0-1.9-0.5-2.3-1.2v3.8H402V21.7z M405.6,12.7c-1.3,0-2.1,1.1-2.1,2.5
	c0,1.5,0.9,2.5,2.1,2.5c1.3,0,2.1-1.1,2.1-2.5S406.9,12.7,405.6,12.7z M418.5,15.2c0,2.2-1.5,3.8-3.7,3.8s-3.7-1.6-3.7-3.8
	s1.5-3.8,3.7-3.8S418.5,13,418.5,15.2z M417,15.2c0-1.7-1.1-2.6-2.2-2.6s-2.2,0.9-2.2,2.6s1.1,2.6,2.2,2.6S417,16.9,417,15.2z
	 M421.6,16.5c0.1,0.8,0.7,1.3,1.7,1.3c0.8,0,1.2-0.5,1.2-1s-0.3-0.8-0.9-0.9l-1.2-0.3c-1.1-0.2-1.8-1-1.8-2c0-1.2,1.2-2.3,2.6-2.3
	c2,0,2.6,1.3,2.7,1.9l-1.2,0.5c-0.1-0.4-0.4-1.2-1.5-1.2c-0.7,0-1.2,0.5-1.2,1c0,0.4,0.3,0.8,0.8,0.9l1.2,0.3c1.3,0.3,2,1.1,2,2.1
	s-0.9,2.2-2.6,2.2c-2,0-2.8-1.3-2.9-2.1L421.6,16.5L421.6,16.5z M429.2,7.9c0.6,0,1,0.4,1,1s-0.4,1-1,1s-1-0.5-1-1
	C428.2,8.3,428.7,7.9,429.2,7.9z M428.5,18.8v-7.2h1.4v7.2H428.5z M435,11.6h1.6v1.3H435v3.8c0,0.7,0.3,1,1,1c0.2,0,0.4,0,0.6-0.1
	v1.2c-0.1,0-0.5,0.1-1,0.1c-1.2,0-2-0.8-2-2.1v-4h-1.4v-1.3h0.4c0.8,0,1.1-0.5,1.1-1.1V9.3h1.3C435,9.3,435,11.6,435,11.6z
	 M445.9,15.2c0,2.2-1.5,3.8-3.7,3.8s-3.7-1.6-3.7-3.8s1.5-3.8,3.7-3.8S445.9,13,445.9,15.2z M444.4,15.2c0-1.7-1.1-2.6-2.2-2.6
	s-2.2,0.9-2.2,2.6s1,2.6,2.2,2.6S444.4,16.9,444.4,15.2z M452.4,13h-0.6c-1.2,0-2,0.6-2,2.2v3.6h-1.4v-7.2h1.4v1.3
	c0.5-1.1,1.4-1.4,2.2-1.4h0.5V13L452.4,13z M455.1,21.8l1.8-3.8l-3.1-6.4h1.6l2.2,5l2.2-5h1.5l-4.7,10.2
	C456.6,21.8,455.1,21.8,455.1,21.8z"/>
<path class="st1" d="M534.3,312.7h61.2 M379.3,230.7h113 M420.6,271.7c0-22.6-18.4-41-41-41H177.4 M420.6,271.7
	c0,22.6,18.4,41,41,41h30.7"/>
<circle class="st2" cx="323" cy="230.7" r="21"/>
<ellipse transform="matrix(0.1602 -0.9871 0.9871 0.1602 -26.4168 430.3508)" class="st2" cx="239.7" cy="230.7" rx="21" ry="21"/>
<circle class="st3" cx="616.5" cy="312.7" r="21"/>
<circle class="st3" cx="513.3" cy="312.7" r="21"/>
<circle class="st4" cx="513.3" cy="230.7" r="21"/>
<circle class="st2" cx="156.5" cy="230.7" r="21"/>
<path class="st1" d="M513.3,185.2v-23.5 M524.1,176.5l-10.8,10.8l-10.9-10.8"/>
<path class="st4" d="M445.2,90.8h136v50h-136V90.8z"/>
<path class="st1" d="M616.5,267.5V244 M627.4,258.8l-10.9,10.9l-10.9-10.9"/>
<path class="st3" d="M568.5,173.1h96v50h-96V173.1z"/>
<path class="st5" d="M510.4,425.2v-10.6h3.7c2.7,0,5.1,1.8,5.1,5.3s-2.4,5.3-5.1,5.3L510.4,425.2L510.4,425.2z M514.1,423.9
	c2,0,3.6-1.3,3.6-4s-1.6-4-3.6-4h-2.2v8H514.1z M522.5,414.3c0.6,0,1,0.4,1,1s-0.4,1-1,1s-1-0.5-1-1
	C521.5,414.7,522,414.3,522.5,414.3z M521.8,425.2V418h1.4v7.2H521.8z M529.7,425.2h-1.4l-2.9-7.2h1.6l2.1,5.6l2.1-5.6h1.5
	L529.7,425.2L529.7,425.2z M540.7,423.2c-0.4,1.3-1.6,2.3-3.2,2.3c-1.9,0-3.6-1.4-3.6-3.9c0-2.3,1.6-3.8,3.4-3.8
	c2.2,0,3.5,1.5,3.5,3.8v0.4h-5.4c0,1.3,1,2.2,2.2,2.2s1.8-0.6,2-1.5L540.7,423.2z M539.3,420.9c0-1-0.7-1.8-2-1.8
	c-1.2,0-1.9,0.9-2,1.8H539.3z M547.3,419.5h-0.6c-1.2,0-2,0.6-2,2.2v3.6h-1.4V418h1.4v1.3c0.5-1.1,1.4-1.4,2.2-1.4h0.5v1.6
	L547.3,419.5z M550.3,425.3c0.1,1,0.9,1.8,2,1.8c1.5,0,2.2-0.8,2.2-2.3v-1c-0.3,0.7-1.1,1.2-2.2,1.2c-1.9,0-3.3-1.5-3.3-3.5
	c0-1.9,1.3-3.5,3.3-3.5c1.1,0,1.9,0.4,2.2,1.1v-1h1.4v6.7c0,1.8-0.9,3.6-3.6,3.6c-1.8,0-3.1-1.1-3.3-2.7L550.3,425.3L550.3,425.3z
	 M554.6,421.4c0-1.4-0.8-2.3-2.1-2.3c-1.2,0-2.1,0.9-2.1,2.3s0.8,2.3,2.1,2.3C553.7,423.7,554.6,422.8,554.6,421.4z M565.2,423.2
	c-0.4,1.3-1.6,2.3-3.2,2.3c-1.9,0-3.6-1.4-3.6-3.9c0-2.3,1.6-3.8,3.4-3.8c2.2,0,3.5,1.5,3.5,3.8v0.4h-5.4c0,1.3,1,2.2,2.2,2.2
	s1.8-0.6,2-1.5L565.2,423.2z M563.8,420.9c0-1-0.7-1.8-2-1.8c-1.2,0-1.9,0.9-2,1.8H563.8z M572.9,424.2c-0.3,0.7-1.1,1.3-2.2,1.3
	c-2.1,0-3.4-1.7-3.4-3.8c0-2,1.4-3.8,3.4-3.8c1.3,0,2,0.6,2.2,1.2v-4.7h1.4v9.5c0,0.7,0.1,1.2,0.1,1.3H573
	C573,425,572.9,424.7,572.9,424.2z M570.8,424.2c1.3,0,2.1-1.1,2.1-2.6s-0.8-2.5-2.1-2.5s-2.1,1-2.1,2.5
	C568.6,423.1,569.4,424.2,570.8,424.2z M583.8,419.3v5.9h-1.5v-5.9H581V418h1.3v-1.2c0-1.6,1.1-2.5,2.4-2.5c0.5,0,0.8,0.1,0.8,0.2
	v1.3c-0.1,0-0.3-0.1-0.6-0.1c-0.5,0-1.1,0.2-1.1,1.2v1.1h1.7v1.3H583.8L583.8,419.3z M591.8,419.5h-0.6c-1.2,0-2,0.6-2,2.2v3.6h-1.4
	V418h1.4v1.3c0.5-1.1,1.4-1.4,2.2-1.4h0.5v1.6L591.8,419.5z M600.7,421.6c0,2.2-1.5,3.8-3.7,3.8s-3.7-1.6-3.7-3.8
	c0-2.2,1.5-3.8,3.7-3.8S600.7,419.4,600.7,421.6z M599.3,421.6c0-1.7-1.1-2.6-2.2-2.6s-2.2,0.9-2.2,2.6s1.1,2.6,2.2,2.6
	S599.3,423.3,599.3,421.6z M603.3,425.2V418h1.3v1c0.5-0.8,1.4-1.2,2.2-1.2c0.9,0,1.8,0.4,2.2,1.4c0.6-1,1.5-1.4,2.4-1.4
	c1.3,0,2.5,0.9,2.5,2.7v4.7h-1.4v-4.5c0-0.9-0.5-1.7-1.5-1.7s-1.7,0.8-1.7,1.8v4.4h-1.4v-4.5c0-0.9-0.4-1.7-1.5-1.7
	c-1,0-1.7,0.8-1.7,1.8v4.3h-1.4L603.3,425.2z M497.9,439.6c0,1.6,1,2.5,2.2,2.5c1.3,0,1.8-0.9,2-1.5l1.2,0.5c-0.3,1-1.4,2.2-3.3,2.2
	c-2.1,0-3.6-1.7-3.6-3.8c0-2.2,1.6-3.8,3.6-3.8c1.9,0,2.9,1.2,3.2,2.3l-1.3,0.5c-0.2-0.7-0.7-1.5-1.9-1.5
	C499,437.1,497.9,438,497.9,439.6L497.9,439.6z M512,441.2c-0.4,1.3-1.6,2.3-3.2,2.3c-1.9,0-3.6-1.4-3.6-3.9c0-2.3,1.6-3.8,3.4-3.8
	c2.2,0,3.5,1.5,3.5,3.8v0.4h-5.4c0,1.3,1,2.2,2.2,2.2s1.8-0.6,2-1.5L512,441.2z M510.6,438.9c0-1-0.7-1.8-2-1.8
	c-1.2,0-1.9,0.9-2,1.8H510.6z M516,443.2h-1.4V436h1.4v1c0.5-0.9,1.4-1.2,2.2-1.2c1.7,0,2.6,1.2,2.6,2.9v4.6h-1.4V439
	c0-1-0.4-1.8-1.7-1.8c-1.1,0-1.7,0.9-1.7,2L516,443.2L516,443.2z M525.7,436h1.6v1.3h-1.6v3.8c0,0.7,0.3,1,1,1c0.2,0,0.4,0,0.6-0.1
	v1.2c-0.1,0-0.5,0.1-1,0.1c-1.2,0-2-0.8-2-2.1v-4h-1.4V436h0.4c0.8,0,1.1-0.5,1.1-1.1v-1.2h1.3L525.7,436L525.7,436z M533.7,437.5
	h-0.6c-1.2,0-2,0.6-2,2.2v3.6h-1.4V436h1.4v1.3c0.5-1.1,1.4-1.4,2.2-1.4h0.5v1.6L533.7,437.5z M537.7,439.1l1.9-0.3
	c0.4-0.1,0.6-0.3,0.6-0.5c0-0.7-0.5-1.3-1.6-1.3c-1,0-1.5,0.6-1.6,1.5l-1.4-0.3c0.2-1.4,1.4-2.3,3-2.3c2.2,0,3,1.2,3,2.6v3.6
	c0,0.6,0.1,1,0.1,1.2h-1.4c0-0.2-0.1-0.5-0.1-1c-0.3,0.5-1,1.2-2.3,1.2c-1.5,0-2.4-1-2.4-2.2C535.5,440,536.4,439.3,537.7,439.1
	L537.7,439.1z M540.2,440.2v-0.3l-2.2,0.3c-0.6,0.1-1.1,0.4-1.1,1.1c0,0.5,0.4,1,1.2,1C539.3,442.3,540.2,441.7,540.2,440.2z
	 M544.5,443.2v-10.9h1.4v10.9H544.5z M557.6,437.5H557c-1.2,0-2,0.6-2,2.2v3.6h-1.4V436h1.4v1.3c0.5-1.1,1.4-1.4,2.2-1.4h0.5v1.6
	L557.6,437.5z M566.1,441.2c-0.4,1.3-1.6,2.3-3.2,2.3c-1.9,0-3.6-1.4-3.6-3.9c0-2.3,1.6-3.8,3.4-3.8c2.2,0,3.5,1.5,3.5,3.8v0.4h-5.4
	c0,1.3,1,2.2,2.2,2.2s1.8-0.6,2-1.5L566.1,441.2z M564.6,438.9c0-1-0.7-1.8-2-1.8c-1.2,0-1.9,0.9-2,1.8H564.6z M568.7,446.1V436h1.4
	v1.1c0.4-0.7,1.2-1.3,2.4-1.3c2.2,0,3.3,1.7,3.3,3.8c0,2.1-1.2,3.8-3.4,3.8c-1.1,0-1.9-0.5-2.3-1.2v3.8h-1.4V446.1z M572.2,437.1
	c-1.3,0-2.1,1.1-2.1,2.5c0,1.5,0.9,2.5,2.1,2.5c1.3,0,2.1-1.1,2.1-2.5S573.5,437.1,572.2,437.1z M585.1,439.6c0,2.2-1.5,3.8-3.7,3.8
	s-3.7-1.6-3.7-3.8c0-2.2,1.5-3.8,3.7-3.8S585.1,437.4,585.1,439.6z M583.6,439.6c0-1.7-1.1-2.6-2.2-2.6s-2.2,0.9-2.2,2.6
	s1,2.6,2.2,2.6S583.6,441.3,583.6,439.6z M588.2,440.9c0.1,0.8,0.7,1.3,1.7,1.3c0.8,0,1.2-0.5,1.2-1s-0.3-0.8-0.9-0.9L589,440
	c-1.1-0.2-1.8-1-1.8-2c0-1.2,1.2-2.3,2.6-2.3c2,0,2.6,1.3,2.7,1.9l-1.2,0.5c-0.1-0.4-0.4-1.2-1.5-1.2c-0.7,0-1.2,0.5-1.2,1
	c0,0.4,0.3,0.8,0.8,0.9l1.2,0.3c1.3,0.3,2,1.1,2,2.1s-0.9,2.2-2.6,2.2c-2,0-2.8-1.3-2.9-2.1L588.2,440.9L588.2,440.9z M595.8,432.3
	c0.6,0,1,0.4,1,1s-0.4,1-1,1s-1-0.5-1-1C594.8,432.7,595.3,432.3,595.8,432.3z M595.2,443.2V436h1.4v7.2H595.2z M601.6,436h1.6v1.3
	h-1.6v3.8c0,0.7,0.3,1,1,1c0.2,0,0.4,0,0.6-0.1v1.2c-0.1,0-0.5,0.1-1,0.1c-1.2,0-2-0.8-2-2.1v-4h-1.4V436h0.4c0.8,0,1.1-0.5,1.1-1.1
	v-1.2h1.3L601.6,436L601.6,436z M612.5,439.6c0,2.2-1.5,3.8-3.7,3.8s-3.7-1.6-3.7-3.8c0-2.2,1.5-3.8,3.7-3.8
	S612.5,437.4,612.5,439.6z M611,439.6c0-1.7-1.1-2.6-2.2-2.6s-2.2,0.9-2.2,2.6s1,2.6,2.2,2.6S611,441.3,611,439.6z M619,437.5h-0.6
	c-1.2,0-2,0.6-2,2.2v3.6H615V436h1.4v1.3c0.5-1.1,1.4-1.4,2.2-1.4h0.5v1.6L619,437.5z M621.8,446.3l1.8-3.8l-3.1-6.4h1.6l2.2,5
	l2.2-5h1.5l-4.7,10.2L621.8,446.3L621.8,446.3z"/>
<path class="st1" d="M585.9,375.7c11.6,0,21-9.4,21-21 M585.9,375.7c-11.6,0-21,9.4-21,21 M543.9,375.7c11.6,0,21,9.4,21,21
	 M543.9,375.7c-11.6,0-21-9.4-21-21"/>
<g>
	<path d="M602.7,203.5v-10h2l2.4,7.1c0.2,0.7,0.4,1.2,0.5,1.5c0.1-0.4,0.3-0.9,0.5-1.6l2.4-7h1.8v10H611v-8.4l-2.9,8.4h-1.2L604,195
		v8.5H602.7z"/>
	<path d="M619.7,202.6c-0.5,0.4-0.9,0.7-1.3,0.8c-0.4,0.2-0.9,0.2-1.4,0.2c-0.8,0-1.4-0.2-1.8-0.6c-0.4-0.4-0.6-0.9-0.6-1.5
		c0-0.4,0.1-0.7,0.2-1c0.2-0.3,0.4-0.5,0.6-0.7c0.3-0.2,0.6-0.3,0.9-0.4c0.2-0.1,0.6-0.1,1.1-0.2c1-0.1,1.7-0.3,2.2-0.4
		c0-0.2,0-0.3,0-0.3c0-0.5-0.1-0.9-0.3-1.1c-0.3-0.3-0.8-0.4-1.4-0.4c-0.6,0-1,0.1-1.3,0.3c-0.3,0.2-0.5,0.6-0.6,1.1l-1.2-0.2
		c0.1-0.5,0.3-0.9,0.5-1.2c0.3-0.3,0.6-0.6,1.1-0.7c0.5-0.2,1-0.3,1.6-0.3s1.1,0.1,1.5,0.2s0.7,0.3,0.9,0.6c0.2,0.2,0.3,0.5,0.4,0.8
		c0,0.2,0.1,0.6,0.1,1.1v1.6c0,1.1,0,1.9,0.1,2.2c0.1,0.3,0.2,0.6,0.3,0.9H620C619.8,203.3,619.7,203,619.7,202.6z M619.6,199.9
		c-0.4,0.2-1.1,0.3-2,0.5c-0.5,0.1-0.9,0.2-1.1,0.2c-0.2,0-0.4,0.2-0.5,0.4c-0.1,0.2-0.2,0.4-0.2,0.6c0,0.3,0.1,0.6,0.4,0.8
		c0.2,0.2,0.6,0.3,1.1,0.3s0.9-0.1,1.3-0.3c0.4-0.2,0.6-0.5,0.8-0.9c0.1-0.3,0.2-0.7,0.2-1.2V199.9z"/>
	<path d="M623.4,194.9v-1.4h1.2v1.4H623.4z M623.4,203.5v-7.3h1.2v7.3H623.4z"/>
	<path d="M627.2,203.5v-7.3h1.1v1c0.5-0.8,1.3-1.2,2.3-1.2c0.4,0,0.8,0.1,1.2,0.2c0.4,0.2,0.6,0.4,0.8,0.6s0.3,0.6,0.4,0.9
		c0,0.2,0.1,0.6,0.1,1.2v4.5h-1.2V199c0-0.5,0-0.9-0.1-1.1s-0.3-0.4-0.5-0.6c-0.2-0.1-0.5-0.2-0.9-0.2c-0.5,0-1,0.2-1.4,0.5
		s-0.6,1-0.6,1.9v4H627.2z"/>
</g>
<g>
	<path class="st5" d="M476.9,110.9c2.7,0,5.3,2,5.3,5.5c0,3.6-2.7,5.5-5.3,5.5c-2.7,0-5.3-2-5.3-5.5
		C471.5,112.9,474.2,110.9,476.9,110.9z M476.9,120.7c2,0,3.8-1.4,3.8-4.2c0-2.8-1.9-4.2-3.8-4.2c-2,0-3.8,1.4-3.8,4.2
		C473,119.2,474.9,120.7,476.9,120.7z M488.8,116h-0.6c-1.2,0-2,0.6-2,2.2v3.6h-1.4v-7.2h1.4v1.3c0.5-1.1,1.4-1.4,2.2-1.4h0.5v1.5
		H488.8z M491.8,110.8c0.6,0,1,0.5,1,1c0,0.6-0.4,1-1,1s-1-0.5-1-1S491.2,110.8,491.8,110.8z M491.1,121.8v-7.2h1.4v7.2H491.1z
		 M496.5,121.9c0.1,1,0.9,1.8,2,1.8c1.5,0,2.2-0.8,2.2-2.3v-1c-0.3,0.7-1.1,1.2-2.2,1.2c-1.9,0-3.3-1.5-3.3-3.5
		c0-1.9,1.3-3.5,3.3-3.5c1.1,0,1.9,0.4,2.2,1.1v-1h1.4v6.7c0,1.8-0.9,3.6-3.6,3.6c-1.8,0-3.1-1.1-3.3-2.7
		C495.2,122.3,496.5,121.9,496.5,121.9z M500.7,118c0-1.4-0.8-2.3-2.1-2.3c-1.2,0-2.1,0.9-2.1,2.3s0.8,2.3,2.1,2.3
		S500.7,119.3,500.7,118z M505.7,110.8c0.6,0,1,0.5,1,1c0,0.6-0.4,1-1,1s-1-0.5-1-1S505.2,110.8,505.7,110.8z M505,121.8v-7.2h1.4
		v7.2H505z M511,121.8h-1.4v-7.2h1.4v1c0.5-0.9,1.4-1.2,2.2-1.2c1.7,0,2.6,1.2,2.6,2.9v4.6h-1.4v-4.3c0-1-0.4-1.8-1.7-1.8
		c-1.1,0-1.7,0.9-1.7,2L511,121.8L511,121.8z M518.9,121.8h-1.4l5.1-10.6h1.4L518.9,121.8z"/>
	<g>
		<path class="st5" d="M525.3,121.8v-10h2l2.4,7.1c0.2,0.7,0.4,1.2,0.5,1.5c0.1-0.4,0.3-0.9,0.5-1.6l2.4-7h1.8v10h-1.3v-8.4
			l-2.9,8.4h-1.2l-2.9-8.5v8.5H525.3z"/>
		<path class="st5" d="M542.3,120.9c-0.5,0.4-0.9,0.7-1.3,0.8c-0.4,0.2-0.9,0.2-1.4,0.2c-0.8,0-1.4-0.2-1.8-0.6
			c-0.4-0.4-0.6-0.9-0.6-1.5c0-0.4,0.1-0.7,0.2-1c0.2-0.3,0.4-0.5,0.6-0.7c0.3-0.2,0.6-0.3,0.9-0.4c0.2-0.1,0.6-0.1,1.1-0.2
			c1-0.1,1.7-0.3,2.2-0.4c0-0.2,0-0.3,0-0.3c0-0.5-0.1-0.9-0.3-1.1c-0.3-0.3-0.8-0.4-1.4-0.4s-1,0.1-1.3,0.3
			c-0.3,0.2-0.5,0.6-0.6,1.1l-1.2-0.2c0.1-0.5,0.3-0.9,0.5-1.2c0.3-0.3,0.6-0.6,1.1-0.7c0.5-0.2,1-0.3,1.6-0.3
			c0.6,0,1.1,0.1,1.5,0.2c0.4,0.1,0.7,0.3,0.9,0.6c0.2,0.2,0.3,0.5,0.4,0.8c0,0.2,0.1,0.6,0.1,1.1v1.6c0,1.1,0,1.9,0.1,2.2
			c0.1,0.3,0.2,0.6,0.3,0.9h-1.3C542.4,121.6,542.3,121.3,542.3,120.9z M542.2,118.2c-0.4,0.2-1.1,0.3-2,0.5
			c-0.5,0.1-0.9,0.2-1.1,0.2s-0.4,0.2-0.5,0.4c-0.1,0.2-0.2,0.4-0.2,0.6c0,0.3,0.1,0.6,0.4,0.8c0.2,0.2,0.6,0.3,1.1,0.3
			s0.9-0.1,1.3-0.3c0.4-0.2,0.6-0.5,0.8-0.9c0.1-0.3,0.2-0.7,0.2-1.2V118.2L542.2,118.2z"/>
		<path class="st5" d="M546,113.2v-1.4h1.2v1.4H546z M546,121.8v-7.3h1.2v7.3H546z"/>
		<path class="st5" d="M549.8,121.8v-7.3h1.1v1c0.5-0.8,1.3-1.2,2.3-1.2c0.4,0,0.8,0.1,1.2,0.2c0.4,0.2,0.6,0.4,0.8,0.6
			c0.2,0.2,0.3,0.6,0.4,0.9c0,0.2,0.1,0.6,0.1,1.2v4.5h-1.2v-4.4c0-0.5,0-0.9-0.1-1.1s-0.3-0.4-0.5-0.6c-0.2-0.1-0.5-0.2-0.9-0.2
			c-0.5,0-1,0.2-1.4,0.5s-0.6,1-0.6,1.9v4H549.8z"/>
	</g>
</g>
</svg>
