<?xml version="1.0" encoding="UTF-8"?> <svg xmlns="http://www.w3.org/2000/svg" id="Branches" viewBox="0 0 173.56 311.03"><defs><style>.cls-1{fill:#376db4;}.cls-2{fill:#48bc96;}.cls-3{fill:#3babc8;}.cls-4{fill:#b9c0c3;}</style></defs><path class="cls-1" d="M104.39,80.19h-77v-3h77a11.94,11.94,0,0,0,11.92-11.92V52h3V65.27A14.93,14.93,0,0,1,104.39,80.19Z"></path><polygon class="cls-1" points="110.52 52.96 125.1 52.96 117.81 45.67 110.52 52.96"></polygon><rect class="cls-2" x="14.81" y="231.49" width="3" height="17.38"></rect><rect class="cls-2" x="14.81" y="159.81" width="3" height="49.53"></rect><rect class="cls-2" x="14.81" y="90.21" width="3" height="47.42"></rect><rect class="cls-3" x="65.56" y="128.93" width="3" height="39.87"></rect><rect class="cls-3" x="65.56" y="6.31" width="3" height="97.8"></rect><polygon class="cls-3" points="74.35 7.29 59.77 7.29 67.06 0 74.35 7.29"></polygon><rect class="cls-2" x="14.81" y="279.23" width="3" height="16.17"></rect><polygon class="cls-2" points="23.6 280.21 9.02 280.21 16.31 272.92 23.6 280.21"></polygon><rect class="cls-2" x="14.81" y="6.31" width="3" height="60.75"></rect><polygon class="cls-2" points="23.6 7.29 9.02 7.29 16.31 0 23.6 7.29"></polygon><rect class="cls-1" x="116.31" y="6.31" width="3" height="16.53"></rect><polygon class="cls-1" points="125.1 7.29 110.52 7.29 117.81 0 125.1 7.29"></polygon><path class="cls-3" d="M53.64,221.88H27.86v-3H53.64A11.94,11.94,0,0,0,65.56,207v-8.24h3V207A14.94,14.94,0,0,1,53.64,221.88Z"></path><polygon class="cls-3" points="59.77 199.69 74.35 199.69 67.06 192.41 59.77 199.69"></polygon><path class="cls-3" d="M53.64,150.54H27.86v-3H53.64a11.93,11.93,0,0,0,11.92-11.92v-5.16h3v5.16A14.94,14.94,0,0,1,53.64,150.54Z"></path><polygon class="cls-3" points="59.77 133.38 74.35 133.38 67.06 126.09 59.77 133.38"></polygon><path class="cls-2" d="M16.31,251a9.47,9.47,0,1,1-9.47,9.46A9.47,9.47,0,0,1,16.31,251m0-3a12.47,12.47,0,1,0,12.47,12.46A12.46,12.46,0,0,0,16.31,248Z"></path><path class="cls-2" d="M16.31,210.73a9.47,9.47,0,1,1-9.47,9.47,9.48,9.48,0,0,1,9.47-9.47m0-3A12.47,12.47,0,1,0,28.78,220.2a12.47,12.47,0,0,0-12.47-12.47Z"></path><path class="cls-3" d="M67.06,170.47a9.47,9.47,0,1,1-9.47,9.47,9.48,9.48,0,0,1,9.47-9.47m0-3a12.47,12.47,0,1,0,12.47,12.47,12.47,12.47,0,0,0-12.47-12.47Z"></path><path class="cls-2" d="M16.31,139.68a9.47,9.47,0,1,1-9.47,9.47,9.48,9.48,0,0,1,9.47-9.47m0-3a12.47,12.47,0,1,0,12.47,12.47,12.47,12.47,0,0,0-12.47-12.47Z"></path><path class="cls-3" d="M67.06,104.14a9.47,9.47,0,1,1-9.47,9.46,9.47,9.47,0,0,1,9.47-9.46m0-3A12.47,12.47,0,1,0,79.53,113.6a12.46,12.46,0,0,0-12.47-12.46Z"></path><path class="cls-2" d="M16.31,69.19a9.47,9.47,0,1,1-9.47,9.46,9.47,9.47,0,0,1,9.47-9.46m0-3A12.47,12.47,0,1,0,28.78,78.65,12.46,12.46,0,0,0,16.31,66.19Z"></path><path class="cls-1" d="M117.81,23.74a9.47,9.47,0,1,1-9.47,9.47,9.48,9.48,0,0,1,9.47-9.47m0-3a12.47,12.47,0,1,0,12.47,12.47,12.47,12.47,0,0,0-12.47-12.47Z"></path><path class="cls-2" d="M16.31,69.19a9.47,9.47,0,1,1-9.47,9.46,9.47,9.47,0,0,1,9.47-9.46m0-3A12.47,12.47,0,1,0,28.78,78.65,12.46,12.46,0,0,0,16.31,66.19Z"></path><path class="cls-2" d="M16.31,210.73a9.47,9.47,0,1,1-9.47,9.47,9.48,9.48,0,0,1,9.47-9.47m0-3A12.47,12.47,0,1,0,28.78,220.2a12.47,12.47,0,0,0-12.47-12.47Z"></path><path class="cls-4" d="M62.69,236.47H60.57v-5.78l0-.95,0-1c-.35.35-.6.58-.73.69l-1.15.93-1-1.28L61,226.48h1.74Z"></path><path class="cls-4" d="M65.69,235.5a1.15,1.15,0,0,1,.31-.87,1.24,1.24,0,0,1,.9-.3,1.2,1.2,0,0,1,.87.31,1.12,1.12,0,0,1,.32.86,1.15,1.15,0,0,1-.32.85,1.17,1.17,0,0,1-.87.31,1.23,1.23,0,0,1-.89-.3A1.15,1.15,0,0,1,65.69,235.5Z"></path><path class="cls-4" d="M76.38,231.48a7,7,0,0,1-.86,3.87,3,3,0,0,1-2.64,1.26,2.94,2.94,0,0,1-2.61-1.3,6.8,6.8,0,0,1-.88-3.83,7,7,0,0,1,.86-3.9,3.31,3.31,0,0,1,5.24.06A6.85,6.85,0,0,1,76.38,231.48Zm-4.89,0a7.8,7.8,0,0,0,.32,2.63,1.11,1.11,0,0,0,2.13,0,10.65,10.65,0,0,0,0-5.26,1.11,1.11,0,0,0-2.13,0A7.83,7.83,0,0,0,71.49,231.48Z"></path><path class="cls-4" d="M87.67,233.7a2.58,2.58,0,0,1-1,2.13,4.24,4.24,0,0,1-2.71.78,6.37,6.37,0,0,1-2.83-.6v-2a12.36,12.36,0,0,0,1.71.64,5.18,5.18,0,0,0,1.28.18,1.8,1.8,0,0,0,1.07-.27.89.89,0,0,0,.37-.79.87.87,0,0,0-.16-.52,1.89,1.89,0,0,0-.48-.44,13.94,13.94,0,0,0-1.3-.68,5.89,5.89,0,0,1-1.37-.83,2.94,2.94,0,0,1-.73-.92,2.54,2.54,0,0,1-.28-1.23,2.57,2.57,0,0,1,.9-2.08,3.72,3.72,0,0,1,2.49-.76,5.94,5.94,0,0,1,1.48.18,9.73,9.73,0,0,1,1.48.52l-.68,1.65a10.67,10.67,0,0,0-1.32-.46,4.15,4.15,0,0,0-1-.13,1.33,1.33,0,0,0-.92.28.92.92,0,0,0-.33.73,1,1,0,0,0,.13.49,1.48,1.48,0,0,0,.42.4,11.11,11.11,0,0,0,1.34.7,5.35,5.35,0,0,1,1.92,1.35A2.6,2.6,0,0,1,87.67,233.7Z"></path><path class="cls-4" d="M92.54,235a4.52,4.52,0,0,0,1.31-.24v1.55a4.72,4.72,0,0,1-1.91.35,2.33,2.33,0,0,1-1.82-.63,2.72,2.72,0,0,1-.58-1.9V230.4h-1v-.88l1.14-.7.61-1.62h1.33v1.63h2.14v1.57H91.63v3.68a.8.8,0,0,0,.25.66A1,1,0,0,0,92.54,235Z"></path><path class="cls-4" d="M100.25,236.47l-.4-1h-.06a3.2,3.2,0,0,1-1.08.92,3.55,3.55,0,0,1-1.46.25,2.34,2.34,0,0,1-1.73-.63,2.41,2.41,0,0,1-.63-1.79,2,2,0,0,1,.85-1.79,4.88,4.88,0,0,1,2.57-.64l1.32,0v-.34a1,1,0,0,0-1.19-1.16,5.4,5.4,0,0,0-2.15.55l-.69-1.41a6.24,6.24,0,0,1,2.93-.69,3.66,3.66,0,0,1,2.35.67,2.48,2.48,0,0,1,.83,2v5.09Zm-.62-3.54-.8,0a2.63,2.63,0,0,0-1.36.33,1,1,0,0,0-.44.91c0,.59.34.89,1,.89a1.6,1.6,0,0,0,1.16-.42,1.47,1.47,0,0,0,.43-1.11Z"></path><path class="cls-4" d="M108.1,228.69a2.47,2.47,0,0,1,2.12,1.05,4.87,4.87,0,0,1,.77,2.9,4.79,4.79,0,0,1-.79,2.93,2.56,2.56,0,0,1-2.15,1,2.53,2.53,0,0,1-2.11-1h-.15l-.35.84h-1.59V225.84h2.09v2.47c0,.32,0,.82-.09,1.51h.09A2.41,2.41,0,0,1,108.1,228.69Zm-.67,1.67a1.29,1.29,0,0,0-1.12.47,2.72,2.72,0,0,0-.37,1.57v.23a3.26,3.26,0,0,0,.36,1.76,1.32,1.32,0,0,0,1.16.53,1.14,1.14,0,0,0,1-.59,3.13,3.13,0,0,0,.38-1.72,3.09,3.09,0,0,0-.38-1.69A1.19,1.19,0,0,0,107.43,230.36Z"></path><path class="cls-4" d="M114.8,236.47h-2.09V225.84h2.09Z"></path><path class="cls-4" d="M120.44,236.61a3.93,3.93,0,0,1-2.88-1,3.86,3.86,0,0,1-1-2.88,4.24,4.24,0,0,1,1-3,3.9,3.9,0,0,1,5.18-.13,3.51,3.51,0,0,1,.9,2.55v1h-4.93a2,2,0,0,0,.53,1.39,1.87,1.87,0,0,0,1.38.5,6,6,0,0,0,1.3-.14,6.94,6.94,0,0,0,1.29-.46v1.61a5.07,5.07,0,0,1-1.17.41A7.35,7.35,0,0,1,120.44,236.61Zm-.29-6.44a1.33,1.33,0,0,0-1,.42,1.91,1.91,0,0,0-.43,1.19h2.92a1.69,1.69,0,0,0-.4-1.19A1.36,1.36,0,0,0,120.15,230.17Z"></path><path class="cls-4" d="M112.69,92.41h-2.12V86.62l0-1,0-1a8.33,8.33,0,0,1-.73.69l-1.15.93-1-1.27L111,82.41h1.74Z"></path><path class="cls-4" d="M115.69,91.43a1.18,1.18,0,0,1,.31-.87,1.25,1.25,0,0,1,.9-.29,1.22,1.22,0,0,1,.88.3,1.17,1.17,0,0,1,.31.86,1.15,1.15,0,0,1-.32.85,1.17,1.17,0,0,1-.87.31,1.23,1.23,0,0,1-.89-.3A1.15,1.15,0,0,1,115.69,91.43Z"></path><path class="cls-4" d="M124.67,92.41h-2.11V86.62l0-1,0-1a7.07,7.07,0,0,1-.73.69l-1.15.93-1-1.27,3.22-2.57h1.74Z"></path><path class="cls-4" d="M137.67,89.63a2.58,2.58,0,0,1-1,2.13,4.24,4.24,0,0,1-2.71.78,6.37,6.37,0,0,1-2.83-.6V90a11.18,11.18,0,0,0,1.71.64,5.18,5.18,0,0,0,1.28.18,1.88,1.88,0,0,0,1.07-.26.92.92,0,0,0,.37-.8.87.87,0,0,0-.16-.52,1.89,1.89,0,0,0-.48-.44,12.7,12.7,0,0,0-1.3-.68,5.91,5.91,0,0,1-1.37-.82,3.1,3.1,0,0,1-.73-.93,2.54,2.54,0,0,1-.28-1.23,2.57,2.57,0,0,1,.9-2.08,3.72,3.72,0,0,1,2.49-.76,5.94,5.94,0,0,1,1.48.18,11,11,0,0,1,1.48.52l-.68,1.65a10.13,10.13,0,0,0-1.32-.46,4.61,4.61,0,0,0-1-.13,1.38,1.38,0,0,0-.92.28.92.92,0,0,0-.33.73,1,1,0,0,0,.13.49,1.5,1.5,0,0,0,.42.41,14.12,14.12,0,0,0,1.34.7A5.14,5.14,0,0,1,137.15,88,2.6,2.6,0,0,1,137.67,89.63Z"></path><path class="cls-4" d="M142.54,90.88a4.52,4.52,0,0,0,1.31-.24v1.55a4.56,4.56,0,0,1-1.91.35,2.33,2.33,0,0,1-1.82-.63,2.75,2.75,0,0,1-.58-1.9V86.33h-1v-.88l1.15-.7.6-1.61h1.33v1.62h2.14v1.57h-2.14V90a.8.8,0,0,0,.25.66A1,1,0,0,0,142.54,90.88Z"></path><path class="cls-4" d="M150.25,92.41l-.4-1h-.06a3.09,3.09,0,0,1-1.08.92,3.53,3.53,0,0,1-1.45.25,2.35,2.35,0,0,1-1.74-.63,2.4,2.4,0,0,1-.63-1.79,2,2,0,0,1,.85-1.79,4.9,4.9,0,0,1,2.57-.64l1.32,0v-.34a1,1,0,0,0-1.18-1.16,5.44,5.44,0,0,0-2.16.56l-.69-1.41a6.24,6.24,0,0,1,2.93-.69,3.65,3.65,0,0,1,2.36.67,2.47,2.47,0,0,1,.82,2v5.1Zm-.62-3.54-.8,0a2.63,2.63,0,0,0-1.36.33,1,1,0,0,0-.44.92c0,.59.34.88,1,.88a1.59,1.59,0,0,0,1.16-.42,1.47,1.47,0,0,0,.43-1.11Z"></path><path class="cls-4" d="M158.1,84.62a2.45,2.45,0,0,1,2.12,1.06,4.84,4.84,0,0,1,.77,2.89,4.73,4.73,0,0,1-.79,2.93,2.76,2.76,0,0,1-4.26.07h-.15l-.34.84h-1.6V81.77h2.09v2.47c0,.32,0,.82-.08,1.52h.08A2.4,2.4,0,0,1,158.1,84.62Zm-.67,1.67a1.31,1.31,0,0,0-1.12.47,2.72,2.72,0,0,0-.37,1.57v.23a3.24,3.24,0,0,0,.36,1.76,1.31,1.31,0,0,0,1.16.54,1.15,1.15,0,0,0,1-.6,3.11,3.11,0,0,0,.38-1.72,3,3,0,0,0-.38-1.69A1.2,1.2,0,0,0,157.43,86.29Z"></path><path class="cls-4" d="M164.8,92.41h-2.09V81.77h2.09Z"></path><path class="cls-4" d="M170.44,92.54a4,4,0,0,1-2.88-1,3.89,3.89,0,0,1-1-2.89,4.24,4.24,0,0,1,1-3,3.43,3.43,0,0,1,2.66-1,3.38,3.38,0,0,1,2.52.92,3.51,3.51,0,0,1,.9,2.55v1h-4.93a2,2,0,0,0,.53,1.38,1.83,1.83,0,0,0,1.38.5,6,6,0,0,0,1.3-.14,6.94,6.94,0,0,0,1.29-.46V92a4.51,4.51,0,0,1-1.17.41A7.29,7.29,0,0,1,170.44,92.54Zm-.29-6.44a1.33,1.33,0,0,0-1,.42,2,2,0,0,0-.43,1.2h2.93a1.77,1.77,0,0,0-.41-1.2A1.36,1.36,0,0,0,170.15,86.1Z"></path><path class="cls-4" d="M4.23,310.89l-2.4-7.84H1.76c.09,1.59.13,2.66.13,3.19v4.65H0v-10H2.88l2.37,7.64h0L7.8,300.9h2.88v10h-2v-4.73c0-.22,0-.48,0-.77s0-1.07.09-2.33H8.75l-2.58,7.83Z"></path><path class="cls-4" d="M17.89,310.89l-.4-1h-.06a3.09,3.09,0,0,1-1.08.92,3.52,3.52,0,0,1-1.45.26,2.35,2.35,0,0,1-1.74-.63,2.43,2.43,0,0,1-.63-1.79,2,2,0,0,1,.85-1.8,5,5,0,0,1,2.57-.64l1.32,0v-.33a1,1,0,0,0-1.19-1.17,5.44,5.44,0,0,0-2.15.56l-.69-1.41a6.24,6.24,0,0,1,2.93-.69,3.65,3.65,0,0,1,2.36.67,2.51,2.51,0,0,1,.82,2v5.09Zm-.62-3.54-.8,0a2.54,2.54,0,0,0-1.36.32,1,1,0,0,0-.44.92c0,.59.34.88,1,.88a1.59,1.59,0,0,0,1.16-.42,1.43,1.43,0,0,0,.43-1.1Z"></path><path class="cls-4" d="M21.4,301.27q0-1,1.14-1c.75,0,1.13.34,1.13,1a1,1,0,0,1-.28.76,1.19,1.19,0,0,1-.85.27C21.78,302.3,21.4,302,21.4,301.27Zm2.18,9.62H21.49v-7.64h2.09Z"></path><path class="cls-4" d="M32.82,310.89H30.73v-4.46a2.14,2.14,0,0,0-.29-1.25,1.09,1.09,0,0,0-.94-.41,1.41,1.41,0,0,0-1.26.59,3.57,3.57,0,0,0-.39,1.93v3.6H25.76v-7.64h1.6l.28,1h.11a2.35,2.35,0,0,1,1-.83,3.3,3.3,0,0,1,1.4-.29,2.68,2.68,0,0,1,2,.72,2.93,2.93,0,0,1,.69,2.09Z"></path></svg> 